<svg height="24" viewBox="0 0 24 24" width="24" xmlns="http://www.w3.org/2000/svg"><path d="m18.8284301 0c1.0398655 0 1.882843.84297753 1.882843 1.88284301v9.41421509c0 1.0398654-.8429775 1.882843-1.882843 1.882843h-7.5398448l-.0003999 1.8866087 4.3119187.0003999c.2208564 0 .3998959.1790394.3998959.3998958v.1332986c0 .2208564-.1790395.3998959-.3998959.3998959h-9.55584479c-.22085639 0-.39989586-.1790395-.39989586-.3998959v-.1332986c0-.2208564.17903947-.3998958.39989586-.3998958l4.31097739-.0003999.0003999-1.8866087h-8.47279359c-1.03986548 0-1.88284301-.8429776-1.88284301-1.882843v-9.41421509c0-1.03986548.84297753-1.88284301 1.88284301-1.88284301zm0 .94142151h-16.94558709c-.48279469 0-.88070656.36342653-.93508787.83163186l-.00633363.10978964v9.41421509c0 .4827946.36342653.8807065.83163186.9350878l.10978964.0063337h16.94558709c.4827947 0 .8807066-.3634266.9350879-.8316319l.0063336-.1097896v-9.41421509c0-.48279469-.3634265-.88070656-.8316319-.93508787z" fill="#56707a" fill-rule="evenodd" transform="translate(2 4)"/></svg>