<svg height="24" viewBox="0 0 24 24" width="24" xmlns="http://www.w3.org/2000/svg"><path d="m15.7857143 0c1.5385075 0 2.7857143 1.24720677 2.7857143 2.78571429v7.42857141c0 1.5385075-1.2472068 2.7857143-2.7857143 2.7857143h-14.85714287c-.51283584 0-.92857143-.4157356-.92857143-.9285714v-3.71428574h.92857143c.97905024 0 1.78115333-.75760081 1.85204896-1.71854211l.0050939-.13860075c0-.97905024-.75760081-1.78115333-1.71854211-1.85204896l-.13860075-.0050939h-.92857143v-3.71428571c0-.51283584.41573559-.92857143.92857143-.92857143zm0 .92857143h-14.85714287v2.78571428l.20692253.00761078c1.39637451.10302071 2.49474273 1.22873032 2.57362844 2.64727175l.00453682.16493588-.00698428.17281841c-.10302071 1.39637451-1.22873032 2.49474273-2.61681836 2.57418787l-.16128515.00460389v2.78571431h14.85714287c.9790502 0 1.7811533-.7576008 1.8520489-1.7185421l.0050939-.1386008v-7.42857141c0-1.02567168-.8314711-1.85714286-1.8571428-1.85714286zm-10.13690478 8.82142857c.29915424 0 .54166667.20786779.54166667.4642857v.9285714c0 .256418-.24251243.4642858-.54166667.4642858s-.54166666-.2078678-.54166666-.4642858v-.9285714c0-.25641791.24251242-.4642857.54166666-.4642857zm7.90647618-3.33078571c.8273572 0 1.4792143.62678571 1.4792143 1.48757142 0 .86078572-.6518571 1.47921429-1.4792143 1.47921429-.8440714 0-1.4875714-.61842857-1.4875714-1.47921429 0-.86078571.6435-1.48757142 1.4875714-1.48757142zm.9025714-2.9835-4.2454285 5.85h-.95271431l4.24542861-5.85zm-8.80904758 3.52857142c.29915424 0 .54166667.2078678.54166667.46428572v.92857143c0 .25641792-.24251243.46428571-.54166667.46428571s-.54166666-.20786779-.54166666-.46428571v-.92857143c0-.25641792.24251242-.46428572.54166666-.46428572zm7.90647618.182c-.351 0-.7688571.25071429-.7688571.7605 0 .50978572.4178571.75214286.7688571.75214286.3426429 0 .7521429-.24235714.7521429-.75214286 0-.50978571-.4095-.7605-.7521429-.7605zm-3.3762857-3.81085714c.8273571 0 1.4792143.62678572 1.4792143 1.48757143s-.6518572 1.47921429-1.4792143 1.47921429c-.84407143 0-1.48757143-.61842858-1.48757143-1.47921429s.6435-1.48757143 1.48757143-1.48757143zm-4.53019048.84314286c.29915424 0 .54166667.20786779.54166667.46428571v.92857143c0 .25641792-.24251243.46428572-.54166667.46428572s-.54166666-.2078678-.54166666-.46428572v-.92857143c0-.25641792.24251242-.46428571.54166666-.46428571zm4.53019048-.11607143c-.351 0-.76885714.25071429-.76885714.7605s.41785714.75214286.76885714.75214286c.3426429 0 .7521429-.24235715.7521429-.75214286s-.4095-.7605-.7521429-.7605zm-4.53019048-2.66964286c.29915424 0 .54166667.2078678.54166667.46428572v.92857143c0 .25641792-.24251243.46428571-.54166667.46428571s-.54166666-.20786779-.54166666-.46428571v-.92857143c0-.25641792.24251242-.46428572.54166666-.46428572z" fill="#56707a" transform="translate(3 6)"/></svg>