<svg height="24" viewBox="0 0 24 24" width="24" xmlns="http://www.w3.org/2000/svg"><path d="m15.930306.5843969.0700887.11589722 2.0928113 3.84856187.0244985.057037.019287.05588562.0127783.08593507.0006054 6.58812302-.0029676.0532591.0029676.0531433c0 .2310098-.1664626.4231402-.3859806.4629839l-.0845847.0075814h-2.5813867c-1.2103263 0-2.1914897-.9811634-2.1914897-2.19148975 0-1.1598961.9011032-2.10932828 2.0414469-2.18643392l.1500428-.00505583 2.1101492-.00026889v-1.75332625l-.0665514.00578123h-14.89081778l-.04829866-.00244841-.07106743-.012913-.05752095-.01901611-.05491866-.02658585-.04716942-.03049301-.0499982-.04255603-.05179478-.06006176-.02849949-.0441744-.03135499-.06677795-.02193081-.07860117-.00801189-.08693759.00271793-.05087226.01320981-.07062848.02125539-.06214555.03240888-.06275662.03851817-.05372835.05621626-.05716056 2.56022764-1.86159885-1.88347116.00051148c-.88175617 0-1.60490836.67906438-1.67501918 1.54275576l-.00557111.13783453v8.60462229c0 .8817562.67906438 1.6049084 1.54275576 1.6750192l.13783453.0055711h12.90693344c.8817562 0 1.6049084-.6790643 1.6750192-1.5427557l.0055711-.1673762c0-.259886.2106793-.4705653.4705653-.4705653.2310098 0 .4231402.1664626.4629839.3859806l.0075814.0845847v.0295416c0 1.3943092-1.0884475 2.5343978-2.4620129 2.6169362l-.159708.0047847h-12.90693344c-1.39430917 0-2.5343978-1.0884475-2.61693618-2.4620129l-.00478468-.159708v-8.60462229c0-1.39430917 1.08844755-2.5343978 2.46201294-2.61693618l.15970792-.00478468h2.98383556c.05568986 0 .10912023.00967405.15870227.02743331l2.71002192-1.96784116c.62082489-.41452106 1.44321637-.19674268 1.82791139.46109022l.1443074.24263043.2586739.42390091.5987648.96269494 2.8928414-2.07672824c.5782522-.41520652 1.3364461-.23340062 1.7335265.35928054zm1.2782664 7.88628967-2.1101492.0002689c-.6905543 0-1.2503591.55980487-1.2503591 1.25035918 0 .64739465.492016 1.17987285 1.1225172 1.24390375l.1278419.0064554 2.1101492-.0004033zm-2.4103949-7.51040112-.0524797.02930162-5.36356718 3.85064743 7.75989038.00064593.0401998.0031186-2.0086182-3.69410326c-.0976962-.17965771-.2489115-.24169992-.3754251-.18961032zm-5.72934753-.00516334-.05675732.02852242-5.31248839 3.85658997 5.07247749.00175417c-.02918565-.02460658-.05582766-.05318902-.0791095-.0856133-.13473742-.18764689-.11158237-.44080243.04349083-.60120179l.06428538-.0554927 1.73995284-1.25009829-.57889063-.92282465-.47201137-.77904768c-.10324075-.17654288-.28203363-.24253966-.42094933-.19258815z" fill="#56707a" transform="translate(3 4)"/></svg>