<svg height="24" viewBox="0 0 24 24" width="24" xmlns="http://www.w3.org/2000/svg"><path d="m6.69178082 0c2.14721569 0 3.94235878 1.32759855 4.05594018 3.06468629l.0057037.17503974-.0004247 2.26827397 1.9185601.70113556c.1690601.06175712.2896057.2084163.3205971.38129382l.0078428.08835193v4.28493459c-.0667488 3.0383363-3.234384 5.9684901-6.44642857 5.9684901-3.10507657 0-6.25018117-2.7306218-6.53338107-5.6536924l-.0150782-.2042155-.00111216-.0752981-.004-.0462461v-4.27397259c0-.17998685.09639411-.343536.24814272-.4319637l.08029719-.03768205 2.30156009-.84113556.00013699-2.12827397c0-1.8221458 1.84285429-3.23972603 4.06164383-3.23972603zm.01268121 5.09400592c-.09903073-.03617561-.2052621-.04521951-.30789315-.0271317l-.10103091.0271317-5.29553797 1.93399408v3.899l.0042922.1086303c.1237446 2.4394799 2.89030359 4.8965757 5.54927923 4.8965757 2.61159931 0 5.25307607-2.3814984 5.43705487-4.789347l.0093737-.1901051v-3.9247539zm-.06747573 2.35804887c1.12348336 0 2.03424658.91076322 2.03424658 2.03424658 0 .50013887-.18213078.97002193-.49776425 1.33342043l-.12452551.1311341-.03594312.0301441.00069863 1.1354384c0 .6064261-.39401508 1.1278095-.96921424 1.3107598l-.12595262.0339312-.14057539.0242287-.14097008.0077926c-.7156115 0-1.30369947-.5459932-1.37041013-1.2441258l-.0063022-.1325865-.00027397-1.1344384-.03581219-.0319564c-.30813376-.2972701-.51635176-.6854122-.59093025-1.11153173l-.02368187-.18479359-.00683596-.16741691c0-1.12348336.91076321-2.03424658 2.03424657-2.03424658zm0 1c-.57119861 0-1.03424657.46304797-1.03424657 1.03424658 0 .30058655.12874031.57884693.34664226.77267833l.09873004.0777203.22781555.1581965-.01565361.3064734v1.3150685c0 .1820459.1291302.3339318.28002599.3697031l.06568919.0079709.0788814-.0039226c.15989928-.0200107.28727349-.1404553.3204029-.2941827l.00842524-.0793264.00233723-1.2879234-.03536567-.3220468.2446001-.1696009c.27756043-.192455.44596253-.50702747.44596253-.85080823 0-.57119861-.46304797-1.03424658-1.03424658-1.03424658zm.05479452-7.45205479c-1.64932078 0-2.95753266.95752036-3.05572452 2.1015914l-.00591931.13813463-.00013699 1.76227397 2.32241779-.84728559c.30310882-.11072468.63140555-.12654249.94171092-.04745343l.1534535.04745343 2.70541779.98828559.00042466-1.90327397c0-1.20407201-1.34635023-2.23972603-3.06164384-2.23972603z" fill="#56707a" transform="translate(5.5 3.5)"/></svg>